{
    "asset" : {
        "generator" : "Khronos glTF Blender I/O v1.2.75",
        "version" : "2.0"
    },
    "scene" : 0,
    "scenes" : [
        {
            "name" : "Scene",
            "nodes" : [
                0
            ]
        }
    ],
    "nodes" : [
        {
            "mesh" : 0,
            "name" : "DESPERTADOR_Cube.007",
            "rotation" : [
                0.6223830580711365,
                0.33561795949935913,
                -0.3356180489063263,
                0.6223828792572021
            ],
            "translation" : [
                -4.828828811645508,
                3.568734884262085,
                -5.517602920532227
            ]
        }
    ],
    "materials" : [
        {
            "doubleSided" : true,
            "emissiveFactor" : [
                0,
                0,
                0
            ],
            "name" : "pblanco.001",
            "pbrMetallicRoughness" : {
                "baseColorFactor" : [
                    0.37625500559806824,
                    0.37625500559806824,
                    0.37625500559806824,
                    1
                ],
                "metallicFactor" : 0,
                "roughnessFactor" : 1
            }
        },
        {
            "doubleSided" : true,
            "emissiveFactor" : [
                0,
                0,
                0
            ],
            "name" : "maya.003",
            "pbrMetallicRoughness" : {
                "baseColorTexture" : {
                    "index" : 0,
                    "texCoord" : 0
                },
                "metallicFactor" : 0,
                "roughnessFactor" : 0.5
            }
        },
        {
            "doubleSided" : true,
            "emissiveFactor" : [
                0,
                0,
                0
            ],
            "name" : "PANTALLA.001",
            "pbrMetallicRoughness" : {
                "baseColorFactor" : [
                    0.05027199909090996,
                    0.11085599660873413,
                    0.3559499979019165,
                    1
                ],
                "metallicFactor" : 0,
                "roughnessFactor" : 0
            }
        },
        {
            "doubleSided" : true,
            "emissiveFactor" : [
                0,
                0,
                0
            ],
            "name" : "BOTONES",
            "pbrMetallicRoughness" : {
                "baseColorFactor" : [
                    0.10878799855709076,
                    0.10835999995470047,
                    0.10708100348711014,
                    1
                ],
                "metallicFactor" : 0,
                "roughnessFactor" : 1
            }
        }
    ],
    "meshes" : [
        {
            "name" : "DESPERTADOR_Cube.007",
            "primitives" : [
                {
                    "attributes" : {
                        "POSITION" : 0,
                        "NORMAL" : 1,
                        "TEXCOORD_0" : 2
                    },
                    "indices" : 3,
                    "material" : 0
                },
                {
                    "attributes" : {
                        "POSITION" : 4,
                        "NORMAL" : 5,
                        "TEXCOORD_0" : 6
                    },
                    "indices" : 7,
                    "material" : 1
                },
                {
                    "attributes" : {
                        "POSITION" : 8,
                        "NORMAL" : 9,
                        "TEXCOORD_0" : 10
                    },
                    "indices" : 7,
                    "material" : 2
                },
                {
                    "attributes" : {
                        "POSITION" : 11,
                        "NORMAL" : 12,
                        "TEXCOORD_0" : 13
                    },
                    "indices" : 14,
                    "material" : 3
                }
            ]
        }
    ],
    "textures" : [
        {
            "source" : 0
        }
    ],
    "images" : [
        {
            "bufferView" : 8,
            "mimeType" : "image/jpeg",
            "name" : "maya bocina.jpg"
        }
    ],
    "accessors" : [
        {
            "bufferView" : 0,
            "componentType" : 5126,
            "count" : 226,
            "max" : [
                0.05092054605484009,
                0.08454227447509766,
                0.0350000262260437
            ],
            "min" : [
                -0.05092048645019531,
                -0.08454227447509766,
                -0.034999966621398926
            ],
            "type" : "VEC3"
        },
        {
            "bufferView" : 1,
            "componentType" : 5126,
            "count" : 226,
            "type" : "VEC3"
        },
        {
            "bufferView" : 2,
            "componentType" : 5126,
            "count" : 226,
            "type" : "VEC2"
        },
        {
            "bufferView" : 3,
            "componentType" : 5123,
            "count" : 843,
            "type" : "SCALAR"
        },
        {
            "bufferView" : 4,
            "componentType" : 5126,
            "count" : 8,
            "max" : [
                0.0339205265045166,
                0.08172607421875,
                0.02161407470703125
            ],
            "min" : [
                -0.03391045331954956,
                -0.08172607421875,
                -0.021612942218780518
            ],
            "type" : "VEC3"
        },
        {
            "bufferView" : 5,
            "componentType" : 5126,
            "count" : 8,
            "type" : "VEC3"
        },
        {
            "bufferView" : 6,
            "componentType" : 5126,
            "count" : 8,
            "type" : "VEC2"
        },
        {
            "bufferView" : 7,
            "componentType" : 5123,
            "count" : 12,
            "type" : "SCALAR"
        },
        {
            "bufferView" : 9,
            "componentType" : 5126,
            "count" : 8,
            "max" : [
                0.04900550842285156,
                0.02501392364501953,
                0.016784071922302246
            ],
            "min" : [
                0.011226534843444824,
                -0.02618408203125,
                -0.03397494554519653
            ],
            "type" : "VEC3"
        },
        {
            "bufferView" : 10,
            "componentType" : 5126,
            "count" : 8,
            "type" : "VEC3"
        },
        {
            "bufferView" : 11,
            "componentType" : 5126,
            "count" : 8,
            "type" : "VEC2"
        },
        {
            "bufferView" : 12,
            "componentType" : 5126,
            "count" : 625,
            "max" : [
                0.021785497665405273,
                0.042313575744628906,
                -0.03262394666671753
            ],
            "min" : [
                -0.01991748809814453,
                -0.043903350830078125,
                -0.03404593467712402
            ],
            "type" : "VEC3"
        },
        {
            "bufferView" : 13,
            "componentType" : 5126,
            "count" : 625,
            "type" : "VEC3"
        },
        {
            "bufferView" : 14,
            "componentType" : 5126,
            "count" : 625,
            "type" : "VEC2"
        },
        {
            "bufferView" : 15,
            "componentType" : 5123,
            "count" : 2217,
            "type" : "SCALAR"
        }
    ],
    "bufferViews" : [
        {
            "buffer" : 0,
            "byteLength" : 2712,
            "byteOffset" : 0
        },
        {
            "buffer" : 0,
            "byteLength" : 2712,
            "byteOffset" : 2712
        },
        {
            "buffer" : 0,
            "byteLength" : 1808,
            "byteOffset" : 5424
        },
        {
            "buffer" : 0,
            "byteLength" : 1686,
            "byteOffset" : 7232
        },
        {
            "buffer" : 0,
            "byteLength" : 96,
            "byteOffset" : 8920
        },
        {
            "buffer" : 0,
            "byteLength" : 96,
            "byteOffset" : 9016
        },
        {
            "buffer" : 0,
            "byteLength" : 64,
            "byteOffset" : 9112
        },
        {
            "buffer" : 0,
            "byteLength" : 24,
            "byteOffset" : 9176
        },
        {
            "buffer" : 0,
            "byteLength" : 186937,
            "byteOffset" : 9200
        },
        {
            "buffer" : 0,
            "byteLength" : 96,
            "byteOffset" : 196140
        },
        {
            "buffer" : 0,
            "byteLength" : 96,
            "byteOffset" : 196236
        },
        {
            "buffer" : 0,
            "byteLength" : 64,
            "byteOffset" : 196332
        },
        {
            "buffer" : 0,
            "byteLength" : 7500,
            "byteOffset" : 196396
        },
        {
            "buffer" : 0,
            "byteLength" : 7500,
            "byteOffset" : 203896
        },
        {
            "buffer" : 0,
            "byteLength" : 5000,
            "byteOffset" : 211396
        },
        {
            "buffer" : 0,
            "byteLength" : 4434,
            "byteOffset" : 216396
        }
    ],
    "buffers" : [
        {
            "byteLength" : 220832,
            "uri" : "data:application/octet-stream;base64,"
        }
    ]
}
