{
    "asset" : {
        "generator" : "Khronos glTF Blender I/O v1.6.16",
        "version" : "2.0"
    },
    "scene" : 0,
    "scenes" : [
        {
            "name" : "Scene",
            "nodes" : [
                0
            ]
        }
    ],
    "nodes" : [
        {
            "mesh" : 0,
            "name" : "Cube",
            "scale" : [
                0.05000000074505806,
                0.05000000074505806,
                0.05000000074505806
            ]
        }
    ],
    "materials" : [
        {
            "doubleSided" : true,
            "name" : "Material",
            "pbrMetallicRoughness" : {
                "baseColorFactor" : [
                    0,
                    0,
                    0,
                    1
                ],
                "metallicFactor" : 0,
                "roughnessFactor" : 0.6727272868156433
            }
        },
        {
            "doubleSided" : true,
            "name" : "Material.001",
            "pbrMetallicRoughness" : {
                "baseColorFactor" : [
                    0.7815253138542175,
                    0.8000000715255737,
                    0.03346169367432594,
                    1
                ],
                "metallicFactor" : 0,
                "roughnessFactor" : 0.5
            }
        },
        {
            "doubleSided" : true,
            "name" : "Material.002",
            "pbrMetallicRoughness" : {
                "baseColorFactor" : [
                    0.008986206725239754,
                    0.8000000715255737,
                    0.0028743755538016558,
                    1
                ],
                "metallicFactor" : 0,
                "roughnessFactor" : 0.5
            }
        },
        {
            "doubleSided" : true,
            "name" : "Material.003",
            "pbrMetallicRoughness" : {
                "baseColorFactor" : [
                    0.800000011920929,
                    0.800000011920929,
                    0.800000011920929,
                    1
                ],
                "metallicFactor" : 0,
                "roughnessFactor" : 0.5
            }
        },
        {
            "doubleSided" : true,
            "name" : "Material.004",
            "pbrMetallicRoughness" : {
                "baseColorFactor" : [
                    0.028455866500735283,
                    0.03962341696023941,
                    0.8000000715255737,
                    1
                ],
                "metallicFactor" : 0,
                "roughnessFactor" : 0.5
            }
        },
        {
            "doubleSided" : true,
            "name" : "Material.005",
            "pbrMetallicRoughness" : {
                "baseColorFactor" : [
                    0.8000000715255737,
                    0.15252865850925446,
                    0.026185201480984688,
                    1
                ],
                "metallicFactor" : 0,
                "roughnessFactor" : 0.5
            }
        },
        {
            "doubleSided" : true,
            "name" : "Material.006",
            "pbrMetallicRoughness" : {
                "baseColorFactor" : [
                    0.8000000715255737,
                    0.00937726441770792,
                    0.7016479969024658,
                    1
                ],
                "metallicFactor" : 0,
                "roughnessFactor" : 0.5
            }
        }
    ],
    "meshes" : [
        {
            "name" : "Cube",
            "primitives" : [
                {
                    "attributes" : {
                        "POSITION" : 0,
                        "NORMAL" : 1,
                        "TEXCOORD_0" : 2
                    },
                    "indices" : 3,
                    "material" : 0
                },
                {
                    "attributes" : {
                        "POSITION" : 4,
                        "NORMAL" : 5,
                        "TEXCOORD_0" : 6
                    },
                    "indices" : 7,
                    "material" : 1
                },
                {
                    "attributes" : {
                        "POSITION" : 8,
                        "NORMAL" : 9,
                        "TEXCOORD_0" : 10
                    },
                    "indices" : 11,
                    "material" : 2
                },
                {
                    "attributes" : {
                        "POSITION" : 12,
                        "NORMAL" : 13,
                        "TEXCOORD_0" : 14
                    },
                    "indices" : 11,
                    "material" : 3
                },
                {
                    "attributes" : {
                        "POSITION" : 15,
                        "NORMAL" : 16,
                        "TEXCOORD_0" : 17
                    },
                    "indices" : 7,
                    "material" : 4
                },
                {
                    "attributes" : {
                        "POSITION" : 18,
                        "NORMAL" : 19,
                        "TEXCOORD_0" : 20
                    },
                    "indices" : 21,
                    "material" : 5
                },
                {
                    "attributes" : {
                        "POSITION" : 22,
                        "NORMAL" : 23,
                        "TEXCOORD_0" : 24
                    },
                    "indices" : 25,
                    "material" : 6
                }
            ]
        }
    ],
    "accessors" : [
        {
            "bufferView" : 0,
            "componentType" : 5126,
            "count" : 23112,
            "max" : [
                5.019999980926514,
                5.019999980926514,
                1
            ],
            "min" : [
                -1,
                -1,
                -5.019999980926514
            ],
            "type" : "VEC3"
        },
        {
            "bufferView" : 1,
            "componentType" : 5126,
            "count" : 23112,
            "type" : "VEC3"
        },
        {
            "bufferView" : 2,
            "componentType" : 5126,
            "count" : 23112,
            "type" : "VEC2"
        },
        {
            "bufferView" : 3,
            "componentType" : 5123,
            "count" : 34344,
            "type" : "SCALAR"
        },
        {
            "bufferView" : 4,
            "componentType" : 5126,
            "count" : 36,
            "max" : [
                5.019999980926514,
                4.859923362731934,
                0.8399233222007751
            ],
            "min" : [
                5.019999980926514,
                -0.8399233222007751,
                -4.859923362731934
            ],
            "type" : "VEC3"
        },
        {
            "bufferView" : 5,
            "componentType" : 5126,
            "count" : 36,
            "type" : "VEC3"
        },
        {
            "bufferView" : 6,
            "componentType" : 5126,
            "count" : 36,
            "type" : "VEC2"
        },
        {
            "bufferView" : 7,
            "componentType" : 5123,
            "count" : 54,
            "type" : "SCALAR"
        },
        {
            "bufferView" : 8,
            "componentType" : 5126,
            "count" : 36,
            "max" : [
                4.859923362731934,
                4.859923362731934,
                -5.019999980926514
            ],
            "min" : [
                -0.8399233222007751,
                -0.8399233222007751,
                -5.019999980926514
            ],
            "type" : "VEC3"
        },
        {
            "bufferView" : 9,
            "componentType" : 5126,
            "count" : 36,
            "type" : "VEC3"
        },
        {
            "bufferView" : 10,
            "componentType" : 5126,
            "count" : 36,
            "type" : "VEC2"
        },
        {
            "bufferView" : 11,
            "componentType" : 5123,
            "count" : 54,
            "type" : "SCALAR"
        },
        {
            "bufferView" : 12,
            "componentType" : 5126,
            "count" : 36,
            "max" : [
                -1,
                4.859923362731934,
                0.8399233222007751
            ],
            "min" : [
                -1,
                -0.8399233222007751,
                -4.859923362731934
            ],
            "type" : "VEC3"
        },
        {
            "bufferView" : 13,
            "componentType" : 5126,
            "count" : 36,
            "type" : "VEC3"
        },
        {
            "bufferView" : 14,
            "componentType" : 5126,
            "count" : 36,
            "type" : "VEC2"
        },
        {
            "bufferView" : 15,
            "componentType" : 5126,
            "count" : 36,
            "max" : [
                4.859923362731934,
                4.859923362731934,
                1
            ],
            "min" : [
                -0.8399233222007751,
                -0.8399233222007751,
                1
            ],
            "type" : "VEC3"
        },
        {
            "bufferView" : 16,
            "componentType" : 5126,
            "count" : 36,
            "type" : "VEC3"
        },
        {
            "bufferView" : 17,
            "componentType" : 5126,
            "count" : 36,
            "type" : "VEC2"
        },
        {
            "bufferView" : 18,
            "componentType" : 5126,
            "count" : 36,
            "max" : [
                4.859923362731934,
                5.019999980926514,
                0.8399233222007751
            ],
            "min" : [
                -0.8399233222007751,
                5.019999980926514,
                -4.859923362731934
            ],
            "type" : "VEC3"
        },
        {
            "bufferView" : 19,
            "componentType" : 5126,
            "count" : 36,
            "type" : "VEC3"
        },
        {
            "bufferView" : 20,
            "componentType" : 5126,
            "count" : 36,
            "type" : "VEC2"
        },
        {
            "bufferView" : 21,
            "componentType" : 5123,
            "count" : 54,
            "type" : "SCALAR"
        },
        {
            "bufferView" : 22,
            "componentType" : 5126,
            "count" : 36,
            "max" : [
                4.859923362731934,
                -1,
                0.8399233222007751
            ],
            "min" : [
                -0.8399233222007751,
                -1,
                -4.859923362731934
            ],
            "type" : "VEC3"
        },
        {
            "bufferView" : 23,
            "componentType" : 5126,
            "count" : 36,
            "type" : "VEC3"
        },
        {
            "bufferView" : 24,
            "componentType" : 5126,
            "count" : 36,
            "type" : "VEC2"
        },
        {
            "bufferView" : 25,
            "componentType" : 5123,
            "count" : 54,
            "type" : "SCALAR"
        }
    ],
    "bufferViews" : [
        {
            "buffer" : 0,
            "byteLength" : 277344,
            "byteOffset" : 0
        },
        {
            "buffer" : 0,
            "byteLength" : 277344,
            "byteOffset" : 277344
        },
        {
            "buffer" : 0,
            "byteLength" : 184896,
            "byteOffset" : 554688
        },
        {
            "buffer" : 0,
            "byteLength" : 68688,
            "byteOffset" : 739584
        },
        {
            "buffer" : 0,
            "byteLength" : 432,
            "byteOffset" : 808272
        },
        {
            "buffer" : 0,
            "byteLength" : 432,
            "byteOffset" : 808704
        },
        {
            "buffer" : 0,
            "byteLength" : 288,
            "byteOffset" : 809136
        },
        {
            "buffer" : 0,
            "byteLength" : 108,
            "byteOffset" : 809424
        },
        {
            "buffer" : 0,
            "byteLength" : 432,
            "byteOffset" : 809532
        },
        {
            "buffer" : 0,
            "byteLength" : 432,
            "byteOffset" : 809964
        },
        {
            "buffer" : 0,
            "byteLength" : 288,
            "byteOffset" : 810396
        },
        {
            "buffer" : 0,
            "byteLength" : 108,
            "byteOffset" : 810684
        },
        {
            "buffer" : 0,
            "byteLength" : 432,
            "byteOffset" : 810792
        },
        {
            "buffer" : 0,
            "byteLength" : 432,
            "byteOffset" : 811224
        },
        {
            "buffer" : 0,
            "byteLength" : 288,
            "byteOffset" : 811656
        },
        {
            "buffer" : 0,
            "byteLength" : 432,
            "byteOffset" : 811944
        },
        {
            "buffer" : 0,
            "byteLength" : 432,
            "byteOffset" : 812376
        },
        {
            "buffer" : 0,
            "byteLength" : 288,
            "byteOffset" : 812808
        },
        {
            "buffer" : 0,
            "byteLength" : 432,
            "byteOffset" : 813096
        },
        {
            "buffer" : 0,
            "byteLength" : 432,
            "byteOffset" : 813528
        },
        {
            "buffer" : 0,
            "byteLength" : 288,
            "byteOffset" : 813960
        },
        {
            "buffer" : 0,
            "byteLength" : 108,
            "byteOffset" : 814248
        },
        {
            "buffer" : 0,
            "byteLength" : 432,
            "byteOffset" : 814356
        },
        {
            "buffer" : 0,
            "byteLength" : 432,
            "byteOffset" : 814788
        },
        {
            "buffer" : 0,
            "byteLength" : 288,
            "byteOffset" : 815220
        },
        {
            "buffer" : 0,
            "byteLength" : 108,
            "byteOffset" : 815508
        }
    ],
    "buffers" : [
        {
            "byteLength" : 815616,
            "uri" : "data:application/octet-stream;base64,"
        }
    ]
}
