{
    "asset" : {
        "generator" : "Khronos glTF Blender I/O v1.2.75",
        "version" : "2.0"
    },
    "scene" : 0,
    "scenes" : [
        {
            "name" : "Scene",
            "nodes" : [
                0
            ]
        }
    ],
    "nodes" : [
        {
            "mesh" : 0,
            "name" : "SILLON-S_Cube.023",
            "rotation" : [
                0.0009321729303337634,
                0.7071060538291931,
                -0.7071062922477722,
                0.0009321726975031197
            ],
            "scale" : [
                0.04268729314208031,
                0.04268729314208031,
                0.04268728941679001
            ],
            "translation" : [
                1.5433502197265625,
                0.4018067419528961,
                -10.275505065917969
            ]
        }
    ],
    "materials" : [
        {
            "doubleSided" : true,
            "emissiveFactor" : [
                0,
                0,
                0
            ],
            "name" : "Sala",
            "pbrMetallicRoughness" : {
                "baseColorFactor" : [
                    0.044454000890254974,
                    0.0365930013358593,
                    0.020044999197125435,
                    1
                ],
                "metallicFactor" : 0,
                "roughnessFactor" : 1
            }
        }
    ],
    "meshes" : [
        {
            "name" : "SILLON-S_Cube.023",
            "primitives" : [
                {
                    "attributes" : {
                        "POSITION" : 0,
                        "NORMAL" : 1,
                        "TEXCOORD_0" : 2
                    },
                    "indices" : 3,
                    "material" : 0
                }
            ]
        }
    ],
    "accessors" : [
        {
            "bufferView" : 0,
            "componentType" : 5126,
            "count" : 4544,
            "max" : [
                31.952434539794922,
                11.827890396118164,
                7.111217975616455
            ],
            "min" : [
                14.408496856689453,
                -13.008953094482422,
                -11.751106262207031
            ],
            "type" : "VEC3"
        },
        {
            "bufferView" : 1,
            "componentType" : 5126,
            "count" : 4544,
            "type" : "VEC3"
        },
        {
            "bufferView" : 2,
            "componentType" : 5126,
            "count" : 4544,
            "type" : "VEC2"
        },
        {
            "bufferView" : 3,
            "componentType" : 5123,
            "count" : 6864,
            "type" : "SCALAR"
        }
    ],
    "bufferViews" : [
        {
            "buffer" : 0,
            "byteLength" : 54528,
            "byteOffset" : 0
        },
        {
            "buffer" : 0,
            "byteLength" : 54528,
            "byteOffset" : 54528
        },
        {
            "buffer" : 0,
            "byteLength" : 36352,
            "byteOffset" : 109056
        },
        {
            "buffer" : 0,
            "byteLength" : 13728,
            "byteOffset" : 145408
        }
    ],
    "buffers" : [
        {
            "byteLength" : 159136,
            "uri" : "data:application/octet-stream;base64,"
        }
    ]
}
